<svg width="128" height="128" viewBox="0 0 128 128" fill="none" xmlns="http://www.w3.org/2000/svg">
<path d="M10.58 97.9683L3.93812 56.2093C7.12083 55.1225 10.7421 53.5181 14.5251 51.7241C17.3612 50.3793 20.4573 48.8437 23.6299 47.2702C26.1175 46.0364 28.6521 44.7794 31.1453 43.5725C36.9345 40.7704 42.7559 38.1099 48.2039 36.1301C53.6959 34.1343 58.5599 32.9246 62.4851 32.844C66.3154 32.7653 71.0861 33.9242 76.5964 35.9756C82.0584 38.0089 87.9358 40.7963 93.9295 43.7325C95.0267 44.27 96.1289 44.813 97.2325 45.3568C102.097 47.7537 106.989 50.1638 111.593 52.1671C115.864 54.0251 120.079 55.6213 123.983 56.5451L117.089 97.9178L62.4518 124.1L10.58 97.9683Z" fill="url(#paint0_linear)" stroke="url(#paint1_linear)" stroke-width="7"/>
<rect x="12.6944" y="10.6945" width="35.1389" height="32.0833" fill="white"/>
<path d="M56.2655 11.1445C56.0205 10.8938 55.7203 10.6911 55.3837 10.5491C55.0472 10.4071 54.6816 10.3289 54.3097 10.3193C48.533 10.184 41.2232 4.65098 36.3904 2.47971C33.4051 1.14268 31.4342 0.261096 29.9541 0.0288633C29.6536 -0.0103625 29.3482 -0.00960278 29.0479 0.0311179C27.5679 0.263351 25.597 1.14493 22.6142 2.48197C17.7813 4.65098 10.4716 10.184 4.69484 10.3193C4.32273 10.3294 3.95691 10.4078 3.62005 10.5498C3.28319 10.6917 2.98246 10.8942 2.73652 11.1445C2.22673 11.6611 1.96371 12.3363 2.00404 13.0249C3.24498 35.6236 12.294 49.6095 28.172 57.7376C28.5848 57.9473 29.0429 58.0556 29.4985 58.0556C29.9541 58.0556 30.4122 57.9473 30.8276 57.7376C46.7055 49.6095 55.752 35.6236 56.9955 13.0249C57.0382 12.3364 56.7758 11.6607 56.2655 11.1445V11.1445ZM43.6397 20.0325L30.2411 37.7431C29.7603 38.3789 29.0052 38.8005 28.2576 38.8005C27.5075 38.8005 26.6743 38.433 26.1482 37.9618L16.704 29.4999C16.3957 29.2227 16.2225 28.8473 16.2225 28.456C16.2225 28.0647 16.3957 27.6893 16.704 27.4121L19.0374 25.3175C19.3475 25.0424 19.7663 24.888 20.2028 24.888C20.6393 24.888 21.0581 25.0424 21.3682 25.3175L27.51 30.8189L38.18 16.7113C38.4269 16.3885 38.8064 16.1663 39.2355 16.0932C39.6647 16.0201 40.1087 16.1021 40.4706 16.3213L43.2017 17.9807C43.5625 18.2015 43.8111 18.5412 43.8932 18.9257C43.9752 19.3101 43.8841 19.708 43.6397 20.0325V20.0325Z" fill="#00CF15"/>
<defs>
<linearGradient id="paint0_linear" x1="64" y1="29.3447" x2="61.8706" y2="127.626" gradientUnits="userSpaceOnUse">
<stop stop-color="#0165C1"/>
<stop offset="0.614583" stop-color="#539FE6"/>
<stop offset="0.828125" stop-color="#52A4F0"/>
<stop offset="1" stop-color="#6CB9FF"/>
</linearGradient>
<linearGradient id="paint1_linear" x1="64" y1="29.3447" x2="64" y2="124.305" gradientUnits="userSpaceOnUse">
<stop stop-color="#A2D2FF"/>
<stop offset="1" stop-color="#81C2FF"/>
</linearGradient>
</defs>
</svg>
